<svg width="1280" height="257" viewBox="0 0 1280 257" fill="none" xmlns="http://www.w3.org/2000/svg">
<g clip-path="url(#clip0_14_3)">
<path d="M0 157.021L35.5556 154.999C71.1111 153.032 142.222 148.989 213.333 152.541C284.444 156.092 355.556 167.237 426.667 165.106C497.778 163.03 568.889 147.733 640 138.445C711.111 129.158 782.222 125.88 853.333 132.436C924.444 138.992 995.556 155.382 1066.67 157.185C1137.78 159.042 1208.89 146.258 1244.44 139.92L1280 133.528V257H1244.44C1208.89 257 1137.78 257 1066.67 257C995.556 257 924.444 257 853.333 257C782.222 257 711.111 257 640 257C568.889 257 497.778 257 426.667 257C355.556 257 284.444 257 213.333 257C142.222 257 71.1111 257 35.5556 257H0V157.021Z" fill="#E0C9F8"/>
<path d="M0 200.032L35.5556 202.259C71.1111 204.443 142.222 208.898 213.333 207.742C284.444 206.585 355.556 199.903 426.667 197.033C497.778 194.163 568.889 195.191 640 199.903C711.111 204.615 782.222 213.01 853.333 215.109C924.444 217.165 995.556 212.882 1066.67 214.295C1137.78 215.751 1208.89 222.862 1244.44 226.46L1280 230.015V257.428H1244.44C1208.89 257.428 1137.78 257.428 1066.67 257.428C995.556 257.428 924.444 257.428 853.333 257.428C782.222 257.428 711.111 257.428 640 257.428C568.889 257.428 497.778 257.428 426.667 257.428C355.556 257.428 284.444 257.428 213.333 257.428C142.222 257.428 71.1111 257.428 35.5556 257.428H0V200.032Z" fill="#0066FF"/>
</g>
<defs>
<clipPath id="clip0_14_3">
<rect width="1280" height="257" fill="white"/>
</clipPath>
</defs>
</svg>
