<svg width="1280" height="204" viewBox="0 0 1280 204" fill="none" xmlns="http://www.w3.org/2000/svg">
<path d="M0 135.893L23.7511 137.696C47.36 139.637 94.8622 143.243 142.222 152.949C189.582 162.656 237.084 178.464 284.444 170.837C331.804 163.211 379.307 132.149 426.667 124.107C474.027 116.064 521.529 130.763 568.889 145.184C616.249 159.467 663.751 173.333 711.111 166.123C758.471 159.051 805.973 130.763 853.333 121.749C900.693 112.736 948.196 122.997 995.556 144.213C1042.92 165.429 1090.42 197.877 1137.78 203.147C1185.14 208.416 1232.64 186.784 1256.25 175.829L1280 165.013V0H1256.25C1232.64 0 1185.14 0 1137.78 0C1090.42 0 1042.92 0 995.556 0C948.196 0 900.693 0 853.333 0C805.973 0 758.471 0 711.111 0C663.751 0 616.249 0 568.889 0C521.529 0 474.027 0 426.667 0C379.307 0 331.804 0 284.444 0C237.084 0 189.582 0 142.222 0C94.8622 0 47.36 0 23.7511 0H0V135.893Z" fill="#0066FF"/>
</svg>
