<svg id="visual" viewBox="0 0 900 600" width="900" height="600" xmlns="http://www.w3.org/2000/svg" xmlns:xlink="http://www.w3.org/1999/xlink" version="1.1"><path d="M0 98L16.7 99.3C33.3 100.7 66.7 103.3 100 110.3C133.3 117.3 166.7 128.7 200 123.2C233.3 117.7 266.7 95.3 300 89.5C333.3 83.7 366.7 94.3 400 104.7C433.3 115 466.7 125 500 119.8C533.3 114.7 566.7 94.3 600 87.8C633.3 81.3 666.7 88.7 700 104C733.3 119.3 766.7 142.7 800 146.5C833.3 150.3 866.7 134.7 883.3 126.8L900 119L900 0L883.3 0C866.7 0 833.3 0 800 0C766.7 0 733.3 0 700 0C666.7 0 633.3 0 600 0C566.7 0 533.3 0 500 0C466.7 0 433.3 0 400 0C366.7 0 333.3 0 300 0C266.7 0 233.3 0 200 0C166.7 0 133.3 0 100 0C66.7 0 33.3 0 16.7 0L0 0Z" fill="#0066FF" stroke-linecap="round" stroke-linejoin="miter"></path></svg>